<svg xmlns="http://www.w3.org/2000/svg" width="800" height="800" viewBox="0 0 64 64"><path d="M22 60.3V46.5l-10.3 7.6c2.9 2.7 6.4 4.8 10.3 6.2m20 0c3.9-1.4 7.4-3.5 10.3-6.2L42 46.4zM3.7 42c.3 1 .7 1.9 1.2 2.9L8.8 42zm51.5 0 3.9 2.9 1.2-2.9z" fill="#2a5f9e"/><path d="M23.5 38H2.6c.3 1.4.7 2.7 1.1 4h5.1l-3.9 2.9c.8 1.7 1.7 3.2 2.8 4.7L18 42h4v2l-11.7 8.6 1.4 1.4L22 46.5v13.8c1.3.5 2.6.8 4 1.1V38zm37.9 0H38v23.4c1.4-.3 2.7-.7 4-1.1V46.5L52.3 54c1.4-1.3 2.6-2.7 3.8-4.2L45.4 42h6.8l6.1 4.5a12 12 0 0 0 .8-1.6L55.2 42h5.1z" fill="#fff"/><path d="m7.7 49.6 2.5 3.1L22 44.1v-2h-4zM45.5 42l10.7 7.8 1.1-1.5c.1-.1.1-.2.2-.2l1-1.6-6.3-4.5z" fill="#ed4c5c"/><path d="M42 3.7v13.8l10.3-7.6C49.4 7.2 45.9 5.1 42 3.7m-20 0c-3.9 1.4-7.4 3.5-10.3 6.2L22 17.6zM60.3 22c-.3-1-.7-1.9-1.2-2.9L55.2 22zM8.8 22l-3.9-2.9L3.7 22z" fill="#2a5f9e"/><path d="M40.5 26h20.8c-.3-1.4-.7-2.7-1.1-4h-5.1l3.9-2.9c-.8-1.7-1.7-3.2-2.8-4.7L46 22h-4v-2l11.7-8.6-1.4-1.4L42 17.5V3.7c-1.3-.5-2.6-.8-4-1.1V26zM2.6 26H26V2.6c-1.4.3-2.7.7-4 1.1v13.8L11.7 10c-1.4 1.3-2.6 2.7-3.8 4.2L18.6 22h-6.8l-6.1-4.5a12 12 0 0 0-.8 1.6L8.8 22H3.7z" fill="#fff"/><path d="m56.3 14.4-2.5-3.1L42 19.9v2h4zM18.5 22 7.9 14.2l-1.1 1.5c-.1.1-.1.2-.2.2l-1 1.6 6.1 4.5zm42.9 4H38V2.6Q35.15 2 32 2c-3.15 0-4.1.2-6 .6V26H2.6Q2 28.85 2 32c0 3.15.2 4.1.6 6H26v23.4q2.85.6 6 .6c3.15 0 4.1-.2 6-.6V38h23.4q.6-2.85.6-6c0-3.15-.2-4.1-.6-6" fill="#ed4c5c"/></svg>
